# xmcd
#
# Track frame offsets: 
#        150
#        32088
#        47650
#        66015
#        82963
#        99895
#        116450
#        140528
#        159187
#        176931
#        192485
#        214342
#
# Disc length: 3145 seconds
#
# Revision: 0
# Processed by: cddbd v1.5.2PL0 Copyright (c) Steve Scherf et al.
# Submitted via: ExactAudioCopyFreeDBPlugin 1.0
#
DISCID=a00c470c
DTITLE=Berti Barbera and Nicu Patoi - 100 Hours
DYEAR=2014
DGENRE=Blues
TTITLE0=Money [Pink Floyd]
TTITLE1=Solsbury Hill [Peter Gabriel]
TTITLE2=Blackbird [Beatles]
TTITLE3=My Baby Just Cares For Me [Nina Simone]
TTITLE4=Logical Song [Supertramp]
TTITLE5=Life By The Drop [Stevie Ray Vaughan]
TTITLE6=Black Hole Sun [Soundgarden]
TTITLE7=Follow You Follow Me [Genesis]
TTITLE8=Don't Stop Me Now [Queen]
TTITLE9=Big Yellow Taxi [Joni Mitchell]
TTITLE10=Layely - Overjoyed [Steviw Wonder]
TTITLE11=Radio Ga Ga [Queen]
EXTD=
EXTT0=
EXTT1=
EXTT2=
EXTT3=
EXTT4=
EXTT5=
EXTT6=
EXTT7=
EXTT8=
EXTT9=
EXTT10=
EXTT11=
PLAYORDER=
